<svg xmlns="http://www.w3.org/2000/svg" width="146" height="146" fill="none">
    <g clip-path="url(#a)">
        <path fill="#F77833" d="M73 146c40.317 0 73-32.683 73-73S113.317 0 73 0 0 32.683 0 73s32.683 73 73 73Z"/>
        <path fill="url(#b)" d="M73 146c40.317 0 73-32.683 73-73S113.317 0 73 0 0 32.683 0 73s32.683 73 73 73Z"/>
        <path fill="#C15419"
              d="M118.58 110c-3.79-12.47-10.29-20.91-18.51-31.6l-2.44-3.17-.09-.2c.096-.142.2-.279.31-.41 7.68-9.83 13.52-21.29 18.37-36.08.58-1.76 1.3-4 0-6S112.69 30 111 29.65a181.133 181.133 0 0 0-25.65-2.27 5.46 5.46 0 0 0-5.74 4.18c-1.86 6.09-4.16 12.57-7.17 20.15-.23-6-.38-12.18-.18-18.29a5.76 5.76 0 0 0-1.32-4.56 5.74 5.74 0 0 0-4.47-1.47H47.22a78.67 78.67 0 0 0-12.32.81c-3.73.63-5.32 2.51-5.32 6.28 0 10.2.6 20.49 1.18 30.48l.3 5.07c.7 12.53 1.46 25.25 2.25 37.82v.26a39.922 39.922 0 0 0 1.11 8.2c1 3.58 3 5.15 6.65 5.27h.87c.82 0 1.63.06 2.43.06h18.76a34.161 34.161 0 0 0 4.87-.24c4.45-.66 6.09-2.69 5.85-7.24-.21-4-.3-8-.27-12.07a54.281 54.281 0 0 1 7.89 14.49 5.565 5.565 0 0 0 5.73 4.21c6.56-.08 11.86-.34 16.68-.83a40.9 40.9 0 0 0 10.9-2.17c3.72-1.45 4.96-4.01 3.8-7.79ZM91.83 69.87A7.62 7.62 0 0 0 91 79l.35.55 2.57 3.34.08.11c7.49 9.72 13.45 17.47 16.91 28a40.62 40.62 0 0 1-7.82 1.32c-4.3.43-9 .68-14.77.77-2.89-7.72-7.15-14.45-14.11-22.32a4.929 4.929 0 0 0-1.11-1.07l-4.56-9 4.77-11.29c.47-1.12 1-2.23 1.42-3.35l.07-.15c1.09-2.56 2.2-5.12 3.2-7.71 3.6-8.84 6.3-16.23 8.46-23.14 7.441.16 14.864.808 22.22 1.94-4.51 13.49-9.88 24-16.85 32.87Zm-25.65 44.06c-1.012.12-2.03.18-3.05.18H44.41c-.7 0-1.4 0-2.16-.06h-.54a35.496 35.496 0 0 1-.76-6.33v-.26c-.79-12.51-1.54-25.22-2.25-37.77l-.3-5.09c-.55-9.5-1.12-19.3-1.16-28.95a80.812 80.812 0 0 1 10.11-.53h2.1c4-.07 8.1 0 12 0h3.08c-.16 7.1.11 14.2.4 20.9.19 4.56.53 8.65 1.05 12.51l1.31 9.87-.29-.7-.77 14.22a215.476 215.476 0 0 0-.05 22.01Z"
              opacity=".5"/>
        <path fill="#fff"
              d="M70.05 92.12c-.39 7.408-.39 14.832 0 22.24.14 2.55-.06 2.89-2.59 3.26a30.65 30.65 0 0 1-4.28.31H44.44c-1.07 0-2.13-.05-3.19-.09-2-.06-2.56-.48-3.1-2.46a37.598 37.598 0 0 1-1-7.69c-.787-12.6-1.537-25.2-2.25-37.8-.7-11.8-1.5-23.56-1.5-35.36 0-1.9.21-2.19 2.13-2.52a92.797 92.797 0 0 1 13.84-.78c5.69-.09 11.39 0 17.08 0 1.9 0 2 .12 2 2.08-.25 7.5 0 15 .34 22.47.17 4.05.48 8.08 1 12.18 1.58-3.73 3.19-7.44 4.72-11.18 3.22-7.92 6.24-15.91 8.73-24.09a1.71 1.71 0 0 1 2-1.48c8.415.14 16.81.879 25.12 2.21 3.15.57 3.28.89 2.28 3.91-4.16 12.54-9.64 24.43-17.8 34.89-1.39 1.78-1.52 3-.45 5C103.6 89.3 111 98 114.93 111.07c.56 1.86.31 2.44-1.54 3.16a37.605 37.605 0 0 1-9.91 1.93c-5.42.56-10.88.75-16.34.81a1.79 1.79 0 0 1-2-1.54c-2.5-7.05-6.31-13.73-13.95-22.32-.19-.4-.93-.59-1.14-.99Z"/>
    </g>
    <defs>
        <radialGradient id="b" cx="0" cy="0" r="1" gradientTransform="matrix(73 0 0 73 73 73)"
                        gradientUnits="userSpaceOnUse">
            <stop stop-color="#FF5850" stop-opacity=".6"/>
            <stop offset="1" stop-color="#FF5850" stop-opacity="0"/>
        </radialGradient>
        <clipPath id="a">
            <path fill="#fff" d="M0 0h146v146H0z"/>
        </clipPath>
    </defs>
</svg>